<svg width="183" height="27" viewBox="0 0 183 27" fill="none" xmlns="http://www.w3.org/2000/svg">
<path d="M7.5 24.5L1 17.5L7.5 15L12 20L17.5 15L12 7.5V12.5L1 10L5.5 4.5" stroke="white" stroke-width="2" stroke-linecap="round" stroke-linejoin="round"/>
<path d="M31.368 7.514H26.088V5.6H38.826V7.514H33.546V21H31.368V7.514ZM42.6588 11.298C43.0255 10.6233 43.5681 10.11 44.2868 9.758C45.0055 9.406 45.8781 9.23 46.9048 9.23V11.276C46.7875 11.2613 46.6261 11.254 46.4208 11.254C45.2768 11.254 44.3748 11.5987 43.7148 12.288C43.0695 12.9627 42.7468 13.9307 42.7468 15.192V21H40.6348V9.34H42.6588V11.298ZM53.7324 9.23C55.3457 9.23 56.5777 9.626 57.4284 10.418C58.2937 11.21 58.7264 12.3907 58.7264 13.96V21H56.7244V19.46C56.3724 20.0027 55.8664 20.4207 55.2064 20.714C54.561 20.9927 53.791 21.132 52.8964 21.132C51.591 21.132 50.5424 20.8167 49.7504 20.186C48.973 19.5553 48.5844 18.7267 48.5844 17.7C48.5844 16.6733 48.9584 15.852 49.7064 15.236C50.4544 14.6053 51.6424 14.29 53.2704 14.29H56.6144V13.872C56.6144 12.9627 56.3504 12.266 55.8224 11.782C55.2944 11.298 54.517 11.056 53.4904 11.056C52.801 11.056 52.1264 11.1733 51.4664 11.408C50.8064 11.628 50.249 11.9287 49.7944 12.31L48.9144 10.726C49.5157 10.242 50.2344 9.87533 51.0704 9.626C51.9064 9.362 52.7937 9.23 53.7324 9.23ZM53.2484 19.504C54.055 19.504 54.7517 19.328 55.3384 18.976C55.925 18.6093 56.3504 18.096 56.6144 17.436V15.808H53.3584C51.569 15.808 50.6744 16.4093 50.6744 17.612C50.6744 18.1987 50.9017 18.6607 51.3564 18.998C51.811 19.3353 52.4417 19.504 53.2484 19.504ZM72.738 9.34L67.634 21H65.478L60.374 9.34H62.574L66.578 18.69L70.67 9.34H72.738ZM84.9248 15.236C84.9248 15.3973 84.9101 15.61 84.8808 15.874H75.4208C75.5528 16.9007 76.0001 17.7293 76.7628 18.36C77.5401 18.976 78.5008 19.284 79.6448 19.284C81.0381 19.284 82.1601 18.8147 83.0108 17.876L84.1768 19.24C83.6488 19.856 82.9888 20.3253 82.1968 20.648C81.4194 20.9707 80.5468 21.132 79.5788 21.132C78.3468 21.132 77.2541 20.8827 76.3008 20.384C75.3474 19.8707 74.6068 19.1593 74.0788 18.25C73.5654 17.3407 73.3088 16.314 73.3088 15.17C73.3088 14.0407 73.5581 13.0213 74.0568 12.112C74.5701 11.2027 75.2668 10.4987 76.1468 10C77.0414 9.48667 78.0461 9.23 79.1608 9.23C80.2754 9.23 81.2654 9.48667 82.1308 10C83.0108 10.4987 83.6928 11.2027 84.1768 12.112C84.6754 13.0213 84.9248 14.0627 84.9248 15.236ZM79.1608 11.012C78.1488 11.012 77.2981 11.32 76.6088 11.936C75.9341 12.552 75.5381 13.3587 75.4208 14.356H82.9008C82.7834 13.3733 82.3801 12.574 81.6908 11.958C81.0161 11.3273 80.1728 11.012 79.1608 11.012ZM87.8575 4.676H89.9695V21H87.8575V4.676ZM101.196 21.176C99.656 21.176 98.2627 20.8387 97.016 20.164C95.784 19.4747 94.816 18.536 94.112 17.348C93.408 16.1453 93.056 14.796 93.056 13.3C93.056 11.804 93.408 10.462 94.112 9.274C94.816 8.07133 95.7913 7.13267 97.038 6.458C98.2847 5.76867 99.678 5.424 101.218 5.424C102.421 5.424 103.521 5.62933 104.518 6.04C105.515 6.436 106.366 7.03 107.07 7.822L105.64 9.208C104.481 7.99067 103.037 7.382 101.306 7.382C100.162 7.382 99.128 7.63867 98.204 8.152C97.28 8.66533 96.554 9.37667 96.026 10.286C95.5127 11.1807 95.256 12.1853 95.256 13.3C95.256 14.4147 95.5127 15.4267 96.026 16.336C96.554 17.2307 97.28 17.9347 98.204 18.448C99.128 18.9613 100.162 19.218 101.306 19.218C103.022 19.218 104.467 18.602 105.64 17.37L107.07 18.756C106.366 19.548 105.508 20.1493 104.496 20.56C103.499 20.9707 102.399 21.176 101.196 21.176ZM114.4 21.132C113.242 21.132 112.2 20.8753 111.276 20.362C110.352 19.8487 109.626 19.1447 109.098 18.25C108.585 17.3407 108.328 16.314 108.328 15.17C108.328 14.026 108.585 13.0067 109.098 12.112C109.626 11.2027 110.352 10.4987 111.276 10C112.2 9.48667 113.242 9.23 114.4 9.23C115.559 9.23 116.593 9.48667 117.502 10C118.426 10.4987 119.145 11.2027 119.658 12.112C120.186 13.0067 120.45 14.026 120.45 15.17C120.45 16.314 120.186 17.3407 119.658 18.25C119.145 19.1447 118.426 19.8487 117.502 20.362C116.593 20.8753 115.559 21.132 114.4 21.132ZM114.4 19.284C115.148 19.284 115.816 19.1153 116.402 18.778C117.004 18.426 117.473 17.942 117.81 17.326C118.148 16.6953 118.316 15.9767 118.316 15.17C118.316 14.3633 118.148 13.652 117.81 13.036C117.473 12.4053 117.004 11.9213 116.402 11.584C115.816 11.2467 115.148 11.078 114.4 11.078C113.652 11.078 112.978 11.2467 112.376 11.584C111.79 11.9213 111.32 12.4053 110.968 13.036C110.631 13.652 110.462 14.3633 110.462 15.17C110.462 15.9767 110.631 16.6953 110.968 17.326C111.32 17.942 111.79 18.426 112.376 18.778C112.978 19.1153 113.652 19.284 114.4 19.284ZM134.239 9.34V21H132.237V19.24C131.812 19.8413 131.247 20.3107 130.543 20.648C129.854 20.9707 129.098 21.132 128.277 21.132C126.722 21.132 125.498 20.7067 124.603 19.856C123.708 18.9907 123.261 17.722 123.261 16.05V9.34H125.373V15.808C125.373 16.9373 125.644 17.7953 126.187 18.382C126.73 18.954 127.507 19.24 128.519 19.24C129.634 19.24 130.514 18.9027 131.159 18.228C131.804 17.5533 132.127 16.6 132.127 15.368V9.34H134.239ZM144.486 9.23C145.967 9.23 147.14 9.66267 148.006 10.528C148.886 11.3787 149.326 12.6327 149.326 14.29V21H147.214V14.532C147.214 13.4027 146.942 12.552 146.4 11.98C145.857 11.408 145.08 11.122 144.068 11.122C142.924 11.122 142.022 11.4593 141.362 12.134C140.702 12.794 140.372 13.7473 140.372 14.994V21H138.26V9.34H140.284V11.1C140.709 10.4987 141.281 10.0367 142 9.714C142.733 9.39133 143.562 9.23 144.486 9.23ZM159.79 20.318C159.482 20.582 159.101 20.7873 158.646 20.934C158.192 21.066 157.722 21.132 157.238 21.132C156.065 21.132 155.156 20.8167 154.51 20.186C153.865 19.5553 153.542 18.6533 153.542 17.48V11.078H151.562V9.34H153.542V6.788H155.654V9.34H158.998V11.078H155.654V17.392C155.654 18.0227 155.808 18.5067 156.116 18.844C156.439 19.1813 156.894 19.35 157.48 19.35C158.126 19.35 158.676 19.1667 159.13 18.8L159.79 20.318ZM164.368 11.298C164.734 10.6233 165.277 10.11 165.996 9.758C166.714 9.406 167.587 9.23 168.614 9.23V11.276C168.496 11.2613 168.335 11.254 168.13 11.254C166.986 11.254 166.084 11.5987 165.424 12.288C164.778 12.9627 164.456 13.9307 164.456 15.192V21H162.344V9.34H164.368V11.298ZM182.008 9.34L176.354 22.166C175.855 23.354 175.268 24.19 174.594 24.674C173.934 25.158 173.134 25.4 172.196 25.4C171.624 25.4 171.066 25.3047 170.524 25.114C169.996 24.938 169.555 24.674 169.203 24.322L170.106 22.738C170.707 23.31 171.404 23.596 172.196 23.596C172.709 23.596 173.134 23.4567 173.472 23.178C173.824 22.914 174.139 22.452 174.418 21.792L174.792 20.978L169.643 9.34H171.844L175.914 18.668L179.94 9.34H182.008Z" fill="white"/>
</svg>
